<?xml version="1.0" standalone="no"?>
<!DOCTYPE svg PUBLIC "-//W3C//DTD SVG 20010904//EN"
 "http://www.w3.org/TR/2001/REC-SVG-20010904/DTD/svg10.dtd">
<svg version="1.0" xmlns="http://www.w3.org/2000/svg"
 width="900.000000pt" height="900.000000pt" viewBox="0 0 900.000000 900.000000"
 preserveAspectRatio="xMidYMid meet">
<metadata>
Created by potrace 1.14, written by Peter Selinger 2001-2017
</metadata>
<g transform="translate(0.000000,900.000000) scale(0.100000,-0.100000)"
fill="#000000" stroke="none">
<path d="M5686 6522 c-65 -8 -167 -102 -187 -172 -7 -25 -15 -49 -18 -55 -8
-13 -6 -43 4 -72 5 -15 15 -23 31 -23 19 0 28 10 46 50 12 27 25 47 30 44 4
-3 5 1 3 8 -7 18 48 74 80 82 40 10 83 -18 91 -58 7 -40 -4 -99 -17 -91 -5 4
-6 -2 -2 -11 5 -13 3 -15 -7 -9 -9 5 -11 4 -6 -3 9 -15 -22 -75 -34 -67 -6 3
-7 0 -4 -8 3 -8 0 -18 -7 -23 -8 -5 -10 -3 -4 6 5 8 4 11 -3 6 -6 -4 -9 -12
-6 -19 6 -15 -81 -102 -94 -93 -5 3 -18 -4 -28 -16 -11 -12 -13 -18 -6 -14 6
4 12 3 12 -1 0 -10 -42 -38 -53 -35 -5 1 -6 -1 -3 -6 3 -5 -5 -18 -17 -29 -28
-26 -52 -40 -44 -26 4 6 1 13 -7 16 -11 5 -24 76 -30 164 0 12 -3 21 -7 20
-11 -4 -68 70 -61 79 4 5 3 6 -2 2 -8 -7 -131 88 -170 130 -10 12 -16 28 -13
37 4 8 1 14 -5 12 -6 -1 -16 16 -22 38 -9 30 -17 41 -34 43 -32 5 -50 -13 -78
-76 -13 -29 -28 -51 -34 -47 -6 3 -7 0 -4 -10 8 -21 -84 -108 -106 -100 -8 4
-11 3 -7 -1 10 -10 -68 -53 -128 -71 -57 -17 -116 -53 -161 -100 -38 -40 -54
-42 -55 -5 l-1 27 -8 -30 c-7 -28 -8 -28 -9 -5 0 14 2 36 6 48 4 18 8 21 15
10 7 -9 8 -8 4 5 -3 11 1 46 10 80 18 72 12 110 -17 105 -14 -2 -27 -21 -45
-63 -13 -33 -24 -67 -24 -75 0 -13 -2 -13 -9 -1 -6 10 -8 1 -4 -26 4 -34 2
-43 -18 -57 -22 -15 -25 -14 -51 11 -17 16 -26 33 -23 42 3 9 3 12 -1 8 -4 -4
-23 7 -41 25 -32 31 -45 57 -21 42 7 -5 8 -3 4 5 -5 7 -11 10 -14 7 -7 -7 -62
44 -62 56 0 5 5 6 12 2 7 -4 8 -3 4 5 -4 6 -11 9 -15 6 -12 -7 -44 32 -36 44
3 6 2 11 -3 11 -6 0 -13 11 -16 25 -8 33 -55 46 -70 19 -25 -43 -81 -84 -145
-104 -36 -12 -73 -25 -82 -30 -9 -4 -54 -18 -100 -30 -46 -13 -88 -26 -94 -30
-5 -4 -41 -15 -79 -25 -82 -21 -86 -18 -79 65 7 70 -3 126 -21 133 -8 3 -24 3
-35 0 -17 -4 -21 -13 -21 -52 0 -52 -9 -93 -19 -87 -3 2 -6 -12 -6 -32 0 -34
-3 -37 -28 -38 -24 -1 -32 6 -52 46 -13 25 -30 52 -39 59 -9 7 -13 18 -9 24 3
5 1 7 -4 4 -6 -4 -21 2 -34 12 -45 35 -132 83 -188 102 -31 11 -63 24 -71 28
-8 4 -50 18 -92 31 -45 13 -78 28 -78 36 0 7 -4 16 -10 19 -6 4 -7 -1 -4 -12
3 -10 -3 -3 -15 15 -37 57 -75 52 -87 -13 -6 -34 -90 -142 -106 -137 -4 1 -7
-1 -6 -5 4 -13 -44 -73 -53 -67 -5 3 -6 -3 -2 -12 5 -13 3 -15 -7 -9 -9 5 -11
4 -6 -3 4 -7 -5 -29 -19 -49 -14 -21 -25 -44 -25 -51 0 -7 -5 -10 -12 -6 -7 4
-8 3 -4 -4 10 -17 -21 -85 -35 -76 -7 4 -9 3 -6 -4 11 -16 -3 -41 -19 -35 -8
3 -14 -1 -14 -8 0 -9 -4 -7 -11 4 -6 10 -8 30 -5 45 3 15 2 21 -1 13 -4 -9
-13 3 -25 33 -10 26 -15 52 -12 58 4 7 2 8 -4 4 -11 -7 -16 8 -15 42 1 7 -2
11 -5 8 -3 -3 -20 15 -37 42 -52 77 -156 167 -220 191 -64 24 -83 25 -136 10
-54 -17 -103 -61 -132 -119 -13 -27 -26 -47 -29 -45 -2 2 -1 -29 3 -69 8 -103
65 -188 136 -202 26 -5 32 -3 38 17 6 17 2 27 -19 42 -25 18 -38 46 -14 31 7
-5 8 -3 4 5 -5 7 -11 10 -14 7 -12 -13 -30 33 -30 78 0 38 3 46 14 42 9 -3 12
-1 9 4 -7 12 3 50 13 48 4 -2 19 6 34 16 20 13 37 16 61 12 41 -8 120 -64 110
-78 -3 -6 -1 -8 4 -5 6 4 19 -6 29 -21 10 -15 24 -33 31 -41 8 -7 12 -20 9
-28 -3 -8 -2 -12 3 -9 11 7 113 -185 106 -202 -3 -8 0 -10 7 -6 8 5 9 2 5 -10
-4 -9 -3 -14 2 -11 8 4 17 -12 26 -45 1 -3 5 -13 10 -23 5 -11 3 -23 -5 -30
-7 -7 -10 -7 -7 -2 3 6 2 17 -4 25 -7 12 -9 11 -9 -6 0 -20 -4 -20 -78 -16
-52 3 -98 -1 -141 -12 -74 -19 -171 -22 -171 -4 0 6 -3 8 -6 5 -4 -3 -16 0
-28 8 -31 23 -61 18 -74 -10 -7 -14 -17 -36 -24 -50 -6 -13 -15 -22 -19 -19
-5 3 -6 -2 -3 -10 7 -18 -69 -139 -81 -129 -4 5 -5 3 -2 -3 8 -14 -21 -56 -34
-49 -5 3 -6 -2 -2 -11 5 -13 3 -15 -7 -9 -8 5 -11 4 -6 -3 6 -11 -47 -105 -56
-97 -2 2 -5 -52 -7 -120 -2 -120 -2 -125 18 -125 25 0 47 32 57 83 5 29 9 35
16 25 7 -9 8 -6 4 11 -5 25 30 84 45 75 5 -3 6 1 4 8 -7 17 59 111 70 101 4
-5 5 -2 1 4 -4 7 5 30 19 50 14 21 25 44 25 51 0 7 4 11 8 8 5 -3 6 9 4 26 -3
17 -1 28 5 25 5 -3 7 8 5 27 -3 28 -1 32 20 31 12 -1 34 -8 48 -16 25 -14 158
-18 316 -8 60 3 75 1 92 -14 11 -11 18 -25 15 -33 -3 -9 0 -14 8 -12 9 2 14
-5 13 -19 0 -13 2 -21 4 -18 3 2 17 -19 32 -48 16 -28 36 -56 45 -62 26 -16
43 16 37 74 -7 73 9 273 19 241 6 -17 7 -9 4 25 -4 38 1 63 19 104 14 33 26
48 29 40 4 -9 5 -6 5 6 -2 41 2 56 14 49 6 -4 8 -3 4 4 -8 13 28 75 38 65 4
-4 4 0 1 9 -3 8 1 23 10 32 9 9 14 16 11 16 -8 0 33 80 61 118 13 17 29 46 35
62 5 16 14 27 19 24 6 -3 16 -1 24 6 10 8 15 8 20 0 8 -14 163 -90 181 -90 7
0 34 -11 61 -24 27 -14 61 -29 76 -35 15 -6 27 -15 27 -21 0 -5 6 -10 13 -10
7 0 33 -21 57 -46 25 -26 38 -43 30 -39 -8 5 -3 -3 12 -17 37 -36 60 -95 54
-138 -4 -26 -3 -30 4 -15 7 17 9 16 9 -11 1 -16 7 -39 15 -49 14 -19 17 -17
65 35 28 30 51 50 51 45 0 -7 3 -7 8 0 8 12 78 45 93 45 6 0 26 7 43 15 18 9
68 25 112 36 43 11 84 21 89 23 6 1 37 11 70 20 77 23 151 63 185 100 26 28
29 29 59 16 18 -7 40 -25 49 -39 8 -14 24 -36 35 -48 11 -13 16 -27 11 -35 -4
-7 -4 -10 1 -6 9 8 42 -31 37 -44 -1 -5 2 -8 6 -8 14 0 63 -83 58 -97 -3 -8
-2 -11 3 -8 13 8 24 -30 16 -57 -5 -19 -4 -20 5 -8 9 12 10 4 6 -35 -3 -36 -2
-44 5 -30 7 16 8 13 4 -14 -3 -18 -5 -45 -5 -60 0 -21 -2 -23 -10 -11 -8 11
-9 7 -4 -14 4 -17 3 -27 -2 -23 -6 3 -8 -9 -6 -29 3 -22 12 -39 25 -46 17 -9
24 -7 43 15 12 14 25 23 30 19 4 -4 4 -1 0 5 -4 7 15 49 43 95 49 82 111 160
111 142 0 -5 5 -1 10 8 16 27 158 117 210 133 3 1 31 13 62 27 71 33 139 95
178 163 21 36 36 52 48 50 9 -1 16 -10 16 -18 -1 -9 1 -16 5 -15 8 2 166 -155
185 -184 11 -16 16 -49 17 -99 1 -78 -9 -138 -20 -120 -8 13 -13 -78 -5 -101
5 -16 19 -18 103 -18 86 0 104 -3 147 -26 63 -33 126 -94 119 -113 -3 -9 -3
-12 1 -8 11 11 53 -53 47 -71 -4 -9 -2 -13 4 -9 5 3 18 -13 28 -36 21 -51 43
-77 63 -77 18 0 63 49 108 117 33 48 55 70 121 121 50 38 62 49 94 87 22 26
42 40 57 40 26 0 55 -32 45 -48 -3 -6 -1 -7 5 -3 7 4 12 3 12 -2 0 -21 75 -94
118 -114 44 -20 60 -21 259 -20 182 0 223 -2 280 -18 36 -11 70 -25 73 -31 4
-6 10 -10 14 -10 29 5 113 -70 101 -90 -5 -7 -4 -10 2 -6 6 4 25 -16 44 -43
19 -28 38 -50 42 -50 4 0 7 29 5 64 -2 35 -7 61 -12 58 -5 -3 -7 7 -4 22 3 15
3 24 0 22 -9 -9 -63 85 -56 97 4 7 4 9 -1 5 -9 -9 -81 52 -77 65 1 5 -2 6 -7
2 -6 -3 -32 6 -58 19 -71 38 -170 48 -378 40 l-181 -7 -62 52 c-63 53 -87 83
-74 96 4 3 1 5 -7 3 -8 -2 -24 17 -39 45 -21 39 -29 47 -53 47 -20 0 -34 -8
-46 -27 -35 -56 -116 -142 -127 -136 -6 3 -8 3 -4 -2 4 -4 -9 -21 -30 -37
l-37 -30 -6 34 -6 33 -2 -34 c0 -19 -4 -32 -7 -28 -4 3 -3 27 1 53 5 36 9 44
17 33 8 -11 9 -10 4 4 -3 10 -6 32 -6 48 0 17 -5 29 -13 29 -15 0 -77 -81 -77
-100 0 -6 -5 -8 -12 -4 -7 4 -8 3 -4 -4 4 -7 0 -27 -9 -45 -12 -25 -22 -33
-45 -35 -22 -2 -30 2 -30 14 0 27 -75 91 -131 112 -44 16 -53 23 -53 45 -1 14
2 23 6 21 4 -3 8 -1 8 5 0 5 10 13 23 17 12 4 24 9 27 13 3 3 22 15 44 26 52
26 171 157 206 225 15 30 35 94 44 141 17 89 20 135 5 84 -6 -24 -7 -19 -5 23
2 32 0 48 -5 40 -7 -11 -9 -11 -9 0 0 8 -9 25 -20 39 -11 14 -17 30 -13 36 3
5 2 7 -4 4 -5 -3 -23 2 -39 12 -34 21 -67 28 -108 23z"/>
<path d="M5753 6295 c0 -22 2 -30 4 -17 2 12 2 30 0 40 -3 9 -5 -1 -4 -23z"/>
<path d="M4040 6310 c-9 -6 -10 -10 -3 -10 6 0 15 5 18 10 8 12 4 12 -15 0z"/>
<path d="M4955 6279 c-4 -6 -5 -12 -2 -15 2 -3 7 2 10 11 7 17 1 20 -8 4z"/>
<path d="M5891 6244 c0 -11 3 -14 6 -6 3 7 2 16 -1 19 -3 4 -6 -2 -5 -13z"/>
<path d="M3411 6234 c0 -11 3 -14 6 -6 3 7 2 16 -1 19 -3 4 -6 -2 -5 -13z"/>
<path d="M5881 6194 c0 -11 3 -14 6 -6 3 7 2 16 -1 19 -3 4 -6 -2 -5 -13z"/>
<path d="M2815 6160 c-4 -6 -6 -64 -6 -129 -1 -93 -6 -138 -23 -203 -13 -45
-26 -76 -29 -68 -3 8 -3 0 0 -19 4 -24 3 -32 -5 -27 -8 4 -10 2 -6 -8 8 -21
-28 -138 -38 -123 -4 7 -5 -4 -2 -23 4 -26 3 -31 -5 -20 -8 11 -9 5 -4 -24 3
-23 2 -37 -3 -34 -5 4 -9 -8 -10 -25 0 -18 -3 -41 -6 -52 -3 -11 -9 -35 -13
-53 -6 -24 -10 -30 -16 -20 -5 7 -6 -4 -3 -27 4 -31 3 -37 -6 -25 -9 12 -10
11 -5 -7 3 -13 -3 -76 -14 -140 -11 -65 -23 -158 -27 -208 -5 -58 -10 -80 -13
-61 -4 16 -7 -31 -8 -105 -1 -74 -9 -192 -17 -264 -9 -71 -17 -186 -18 -255
l-2 -125 -6 105 -6 105 -2 -107 -2 -108 -284 0 -284 0 -7 106 c-8 120 3 325
16 284 5 -15 6 -6 3 25 -3 28 0 77 6 110 6 33 18 113 27 178 9 65 19 114 22
109 3 -6 7 28 8 74 2 47 7 93 13 104 5 10 11 43 11 72 l2 53 8 -40 c5 -27 6
-13 3 40 -7 111 -13 134 -36 146 -26 14 -56 -7 -115 -79 -22 -28 -44 -48 -48
-44 -3 3 -3 -2 1 -12 6 -15 4 -17 -6 -11 -9 5 -11 4 -6 -4 9 -15 -21 -64 -34
-56 -6 4 -7 -1 -3 -11 5 -13 3 -15 -7 -9 -8 5 -11 4 -6 -3 8 -13 -44 -123 -55
-116 -4 2 -5 -6 -1 -18 3 -14 1 -19 -6 -14 -8 5 -10 2 -6 -8 3 -9 1 -16 -6
-16 -6 0 -8 -4 -5 -10 7 -12 -19 -53 -28 -44 -3 3 -3 -4 0 -17 4 -14 2 -20 -4
-16 -6 4 -8 -4 -5 -20 4 -19 2 -24 -8 -18 -9 5 -11 4 -6 -4 4 -6 -2 -38 -13
-71 -12 -33 -21 -68 -21 -78 0 -14 -2 -15 -10 -2 -7 11 -9 7 -5 -15 3 -16 -2
-64 -10 -105 -25 -114 -33 -170 -36 -230 -1 -51 -2 -52 -9 -20 -4 19 -5 -8 -3
-60 4 -75 2 -99 -10 -115 -18 -24 -26 -24 -342 -7 -121 6 -270 12 -332 12
-102 0 -113 -2 -126 -21 -22 -30 -10 -57 55 -127 32 -35 56 -68 52 -73 -3 -5
0 -8 7 -7 15 4 61 -61 52 -75 -3 -5 -1 -7 5 -3 13 8 56 -60 46 -75 -4 -8 -3
-9 4 -5 14 8 45 -50 36 -67 -4 -7 -4 -9 1 -5 5 5 16 -6 26 -22 22 -35 38 -37
70 -11 20 16 23 27 23 95 1 71 8 93 19 64 3 -7 6 -3 6 10 1 13 5 20 11 17 5
-3 18 -8 27 -10 10 -2 65 -16 123 -31 58 -15 138 -29 178 -31 58 -4 72 -8 73
-21 0 -15 1 -15 7 1 10 24 36 -64 30 -98 -3 -15 -1 -22 5 -18 6 4 8 -9 4 -37
-4 -31 -3 -40 4 -29 8 10 9 1 5 -30 -2 -25 -1 -39 3 -32 6 9 11 1 15 -22 4
-19 14 -49 22 -67 9 -17 14 -40 11 -51 -3 -10 -1 -17 3 -14 5 3 11 -9 15 -26
4 -17 18 -55 32 -85 13 -30 21 -59 17 -65 -5 -8 -3 -9 6 -4 10 6 12 4 6 -11
-4 -10 -4 -15 0 -11 4 4 19 -13 34 -38 36 -62 118 -155 136 -155 21 0 33 40
38 123 3 48 2 58 -2 32 -8 -43 -23 321 -21 526 l0 116 152 7 c193 9 223 12
312 31 41 8 86 14 100 13 27 -2 27 -3 22 -73 -4 -49 -3 -58 2 -30 8 39 8 38
10 -20 0 -33 10 -123 22 -200 11 -77 18 -156 15 -175 -4 -23 -3 -28 3 -15 6
15 10 7 15 -35 4 -30 16 -85 28 -123 11 -37 17 -74 14 -83 -3 -8 -2 -13 3 -10
5 3 12 -6 16 -21 3 -15 15 -47 26 -71 11 -24 18 -51 14 -60 -3 -9 -3 -13 1 -9
10 10 66 -112 57 -126 -4 -6 -1 -7 7 -2 10 6 12 4 6 -11 -4 -10 -4 -15 0 -11
4 4 22 -16 41 -43 34 -51 60 -62 82 -36 6 7 13 68 15 147 2 85 1 105 -3 54 -5
-63 -8 -27 -15 170 -4 138 -11 327 -14 420 -6 153 -8 657 -4 858 1 43 9 196
17 340 8 144 15 271 16 282 l0 20 9 -20 c5 -12 6 4 2 39 -3 37 -2 57 5 53 5
-3 8 6 5 23 -2 15 3 60 12 99 9 38 17 89 17 113 1 40 2 41 9 13 4 -16 5 12 2
64 -3 55 -1 92 4 89 5 -4 8 38 6 100 -2 59 1 102 5 95 4 -6 8 37 9 95 0 59 2
127 3 152 2 25 -2 77 -9 115 -6 39 -12 78 -13 87 -1 9 -4 15 -8 13 -10 -7 -60
51 -52 60 5 4 3 5 -3 2 -5 -3 -23 3 -40 14 -33 22 -40 23 -49 9z m-878 -2017
c-2 -16 -4 -3 -4 27 0 30 2 43 4 28 2 -16 2 -40 0 -55z"/>
<path d="M2920 6116 c0 -2 8 -10 18 -17 15 -13 16 -12 3 4 -13 16 -21 21 -21
13z"/>
<path d="M5271 5974 c0 -11 3 -14 6 -6 3 7 2 16 -1 19 -3 4 -6 -2 -5 -13z"/>
<path d="M5006 5925 c-25 -13 -46 -21 -46 -17 0 3 -7 -4 -16 -16 -9 -14 -22
-21 -31 -18 -8 3 -11 1 -8 -4 8 -13 -55 -81 -68 -73 -6 3 -7 1 -3 -5 7 -12
-47 -94 -58 -87 -3 3 -4 2 -2 -1 2 -3 -11 -33 -28 -67 -18 -34 -36 -73 -39
-87 -6 -20 -9 -22 -16 -11 -7 10 -9 4 -8 -20 1 -22 -2 -33 -10 -31 -7 1 -13
-2 -13 -7 0 -5 -13 -11 -29 -14 -15 -3 -68 -28 -117 -54 -72 -39 -114 -72
-220 -176 -83 -80 -134 -123 -137 -115 -3 8 -6 5 -8 -7 -1 -11 -5 14 -9 55 -4
41 -11 89 -15 105 -5 17 -9 42 -9 57 -1 14 -5 24 -10 20 -5 -3 -7 5 -4 16 4
12 2 20 -2 17 -12 -7 -23 32 -14 46 4 7 3 9 -4 5 -14 -8 -55 82 -47 103 3 9 3
12 -1 8 -10 -9 -95 123 -87 136 3 6 1 7 -6 3 -6 -4 -14 0 -17 8 -7 18 -71 33
-83 20 -5 -5 -11 -49 -14 -99 -3 -56 -2 -77 3 -55 5 21 7 -37 6 -140 -2 -125
-1 -148 3 -80 l7 95 2 -130 c2 -151 -9 -370 -17 -337 -3 12 -7 -42 -7 -121 -2
-167 -16 -222 -72 -280 -36 -38 -145 -100 -156 -89 -4 3 -6 0 -6 -6 0 -16 -69
-15 -100 1 -86 45 -152 95 -144 108 3 5 1 9 -4 9 -12 0 -8 483 4 501 5 8 9 30
10 49 2 77 17 185 23 162 3 -13 7 21 7 75 1 53 6 99 11 100 6 2 7 18 4 36 -6
28 -11 32 -37 31 -41 -2 -74 -8 -70 -12 6 -5 -58 -67 -67 -64 -4 1 -6 -1 -5
-5 4 -16 -23 -53 -34 -47 -6 4 -8 3 -4 -4 9 -14 -55 -143 -67 -135 -6 3 -7 1
-3 -5 3 -5 -7 -44 -24 -85 -16 -42 -30 -84 -30 -94 0 -11 -3 -14 -8 -6 -4 6
-7 -11 -8 -37 0 -27 -5 -55 -11 -62 -6 -7 -14 -35 -18 -62 -5 -30 -11 -43 -16
-35 -4 7 -5 -7 -2 -31 4 -26 2 -41 -3 -37 -6 3 -10 -69 -11 -184 0 -125 3
-186 10 -182 6 4 8 -4 5 -20 -3 -15 -1 -24 3 -21 5 3 9 1 9 -4 0 -14 73 -122
83 -122 4 0 23 -11 41 -25 48 -37 154 -90 211 -105 29 -8 107 -14 184 -15 94
-1 136 -5 139 -13 2 -7 8 -9 14 -6 7 5 9 -1 5 -17 -3 -13 -9 -91 -14 -174 -5
-108 -9 -137 -14 -105 -3 25 -5 -13 -3 -85 2 -83 0 -119 -5 -100 l-9 30 -1
-27 c0 -16 -7 -28 -13 -28 -9 0 -8 -4 2 -10 12 -8 11 -10 -7 -10 -32 0 -54 11
-46 23 3 5 1 7 -4 4 -6 -4 -30 8 -55 27 -78 60 -117 76 -185 76 -108 0 -199
-66 -274 -197 -17 -29 -35 -51 -40 -48 -5 4 -6 -2 -2 -11 3 -10 2 -15 -3 -12
-5 4 -10 -4 -11 -15 -15 -166 -15 -187 1 -212 34 -51 87 -28 195 84 35 36 59
59 55 51 -5 -9 1 -5 13 8 17 21 27 24 54 18 18 -3 40 -13 48 -21 9 -7 37 -33
63 -56 26 -23 45 -46 41 -52 -3 -5 -2 -7 4 -4 18 11 119 -115 107 -135 -4 -6
-3 -8 3 -5 6 4 22 -10 35 -31 14 -20 52 -65 85 -99 96 -100 121 -86 139 77 6
51 9 60 15 40 5 -14 6 -2 3 30 -4 42 -3 51 6 40 8 -12 9 -9 4 12 -3 16 2 55
14 95 12 37 24 88 28 113 4 25 9 39 11 32 3 -9 9 -10 17 -3 7 6 30 1 67 -17
146 -70 282 -111 414 -123 60 -6 113 -15 116 -21 4 -6 9 -5 13 3 3 8 4 3 2 -9
-3 -13 -2 -21 1 -18 11 11 100 -130 94 -149 -1 -5 1 -7 5 -3 3 4 22 -12 40
-37 40 -52 71 -66 91 -39 17 24 16 68 -4 170 -13 70 -14 87 -3 97 9 9 11 9 6
0 -3 -6 -2 -14 4 -18 5 -3 10 1 10 9 0 12 11 16 51 16 47 0 209 38 269 63 14
6 27 11 30 12 33 11 110 47 158 75 35 19 135 99 140 112 2 5 9 5 14 2 6 -4 8
-2 5 3 -7 11 68 113 83 113 4 0 10 9 13 21 3 12 10 18 16 14 7 -4 8 0 4 11 -4
12 -3 15 5 10 8 -5 10 -1 5 10 -5 13 -3 15 7 9 8 -5 11 -4 7 1 -3 6 9 39 26
74 18 36 39 82 47 103 10 26 16 33 23 25 6 -9 7 -7 3 6 -8 23 3 88 14 81 5 -3
6 3 4 12 -3 10 4 47 16 82 11 35 20 73 21 85 0 20 1 20 8 1 6 -14 8 -5 9 30 9
496 9 584 -1 578 -7 -4 -8 8 -4 38 3 25 3 35 -2 25 -6 -16 -10 -8 -18 32 -5
28 -6 49 -1 46 4 -3 8 1 8 8 0 13 66 34 178 57 75 15 92 5 92 -59 0 -27 -4
-51 -9 -54 -5 -3 -12 -22 -15 -41 -4 -20 -11 -33 -16 -30 -4 3 -6 -3 -3 -13 7
-27 -37 -138 -48 -121 -6 9 -7 4 -3 -15 5 -20 4 -27 -4 -22 -8 4 -10 2 -6 -7
3 -8 -2 -39 -10 -68 -44 -155 -53 -182 -59 -169 -3 8 -4 4 -2 -10 5 -22 -4
-110 -19 -195 -2 -16 -7 -84 -11 -150 -3 -66 -7 -149 -9 -185 -3 -44 -2 -55 4
-35 7 26 8 27 9 7 0 -13 8 -49 17 -79 9 -30 13 -66 10 -81 -4 -18 -3 -22 2
-14 7 10 11 3 17 -24 8 -47 51 -121 77 -135 38 -20 68 38 68 132 0 25 3 49 7
52 3 4 7 19 9 34 8 85 17 127 25 108 4 -11 5 7 3 40 -3 45 -2 55 6 40 8 -16 9
-14 4 13 -8 46 5 137 18 124 6 -6 16 -8 23 -5 14 5 225 -134 225 -149 0 -5 4
-7 9 -3 5 3 16 -2 24 -10 9 -8 18 -15 22 -15 4 0 13 -6 20 -12 34 -30 43 -36
48 -31 3 3 14 -9 25 -26 10 -17 21 -30 23 -28 11 5 -39 -36 -88 -73 -29 -22
-57 -40 -63 -40 -5 0 -10 -4 -10 -9 0 -13 -117 -101 -125 -93 -3 4 -5 2 -3 -4
4 -15 -100 -134 -115 -131 -7 1 -11 -4 -9 -12 4 -18 -48 -72 -61 -64 -6 3 -7
1 -3 -6 7 -11 -37 -74 -46 -65 -3 2 -5 -2 -5 -9 0 -21 -35 -67 -46 -60 -6 3
-7 1 -3 -6 8 -13 -54 -132 -65 -125 -4 2 -5 -4 -2 -14 2 -11 -1 -25 -9 -33 -7
-8 -13 -21 -13 -29 0 -8 -5 -14 -10 -13 -6 1 -11 -11 -12 -25 0 -15 -4 -57 -8
-93 -7 -63 -6 -68 15 -79 36 -19 70 -2 162 82 49 44 88 77 88 74 0 -3 21 17
46 44 26 28 51 50 56 50 5 0 26 17 47 38 21 20 65 60 97 88 33 28 77 67 99 86
37 32 135 107 201 153 44 31 94 74 157 134 44 43 59 65 64 93 3 23 11 38 19
38 8 0 14 4 14 9 0 5 11 8 25 7 23 -1 31 -14 25 -41 -1 -5 2 -7 6 -2 10 9 45
-44 37 -56 -3 -6 -1 -7 5 -3 6 4 18 -6 26 -22 18 -35 123 -140 148 -148 10 -3
18 -9 18 -14 0 -4 33 -26 73 -48 173 -95 391 -91 574 11 79 44 176 134 236
220 18 26 37 44 42 40 4 -5 5 -2 1 5 -4 7 3 26 15 44 13 17 39 72 60 121 20
49 39 83 42 76 3 -8 3 4 0 26 -3 23 -1 35 4 28 4 -6 9 90 9 215 1 125 -2 218
-6 207 -6 -16 -8 -13 -14 16 -3 20 -15 54 -26 77 -11 23 -20 45 -20 50 0 4
-11 23 -25 42 -13 18 -22 38 -18 43 4 6 1 7 -7 2 -10 -6 -12 -4 -7 9 4 9 3 15
-2 12 -13 -9 -44 31 -35 46 4 7 4 10 -1 6 -11 -11 -36 12 -28 25 3 6 1 7 -5 3
-11 -6 -96 47 -88 55 8 8 -63 14 -166 13 -91 0 -108 2 -108 15 0 14 -2 14 -10
1 -7 -10 -8 -1 -3 30 5 25 8 104 7 175 0 142 -19 223 -72 315 -15 25 -25 49
-24 53 1 5 -2 6 -7 3 -5 -3 -15 2 -22 11 -8 9 -32 24 -54 34 -108 49 -177 -16
-100 -93 17 -17 26 -39 29 -69 3 -33 2 -36 -3 -14 -4 17 -5 -27 -3 -97 3 -80
1 -128 -5 -128 -5 0 -8 -14 -5 -30 2 -17 0 -36 -6 -43 -5 -6 -13 -31 -17 -55
-4 -23 -10 -40 -14 -37 -5 2 -6 -7 -3 -20 4 -21 1 -24 -14 -18 -16 6 -17 4 -7
-9 11 -13 7 -15 -31 -16 -51 -2 -114 -23 -165 -54 -20 -13 -40 -22 -44 -20 -5
1 -6 -2 -3 -6 6 -10 -23 -40 -39 -41 -5 -1 -10 -7 -10 -13 -1 -7 -6 -12 -13
-10 -7 1 -11 -1 -10 -6 5 -12 -39 -62 -47 -54 -3 4 -5 2 -3 -3 4 -14 -27 -56
-36 -48 -4 4 -4 0 -1 -9 7 -17 -40 -115 -47 -101 -3 4 -3 2 -1 -6 2 -7 0 -29
-3 -48 -5 -25 -9 -31 -16 -21 -6 8 -7 4 -3 -13 4 -14 1 -59 -5 -100 -20 -121
-22 -167 -12 -199 6 -16 7 -32 2 -35 -5 -3 -11 3 -13 12 -4 14 -5 13 -6 -4 -1
-15 -7 -23 -18 -23 -15 0 -16 2 -3 10 8 5 10 10 4 10 -6 0 -31 20 -56 43 -51
50 -137 99 -218 126 -144 49 -144 69 0 127 25 10 48 22 51 27 3 5 12 9 20 11
26 4 144 85 208 143 36 32 83 84 107 115 23 31 45 54 49 50 5 -4 5 -2 2 5 -7
11 36 107 44 99 6 -7 9 35 12 196 2 92 0 145 -6 141 -6 -4 -7 6 -4 23 3 16 4
23 1 16 -3 -7 -16 9 -30 37 -29 57 -98 124 -151 147 -21 9 -46 20 -55 25 -43
22 -167 32 -373 31 -143 -1 -215 2 -205 8 13 8 13 10 -2 10 -9 0 -38 27 -65
59 -51 64 -80 82 -94 60 -5 -8 -9 -54 -9 -104 0 -62 -3 -85 -10 -75 -9 13 -14
7 -11 -12 0 -5 -4 -8 -10 -8 -27 0 -179 -82 -234 -127 -33 -27 -70 -49 -82
-50 -22 -2 -38 21 -26 39 4 7 1 8 -7 3 -10 -6 -12 -4 -7 8 3 9 3 16 -2 14 -4
-1 -35 32 -69 73 -33 42 -81 95 -105 117 -25 23 -42 45 -39 49 4 4 2 4 -4 1
-6 -4 -19 2 -28 12 -33 37 -168 90 -256 102 -121 16 -137 23 -145 67 -6 37 22
124 85 268 13 29 20 59 17 68 -9 23 -47 20 -101 -9z m-9 -357 c-3 -7 -5 -2 -5
12 0 14 2 19 5 13 2 -7 2 -19 0 -25z m100 -332 c57 -15 137 -71 127 -88 -4 -7
-2 -8 4 -4 14 9 114 -123 107 -141 -2 -8 -1 -12 3 -9 12 7 44 -63 36 -76 -5
-7 -2 -8 6 -3 10 6 12 3 8 -13 -4 -12 -3 -20 1 -18 4 3 16 -23 27 -57 15 -50
19 -90 18 -207 0 -89 2 -126 6 -95 10 77 11 13 0 -118 -5 -65 -13 -124 -18
-130 -5 -7 -15 -42 -22 -79 -7 -40 -16 -65 -22 -62 -6 4 -8 -2 -4 -14 4 -12
-1 -39 -12 -64 -11 -24 -23 -53 -27 -66 -3 -13 -11 -19 -17 -16 -8 5 -9 1 -5
-10 8 -20 -35 -90 -48 -78 -5 4 -5 1 -1 -6 8 -14 -31 -75 -44 -67 -5 3 -12 0
-16 -6 -5 -8 -2 -10 7 -5 8 4 1 -5 -16 -19 -50 -44 -146 -105 -187 -117 -21
-6 -38 -14 -38 -18 0 -4 -30 -17 -67 -29 -38 -12 -78 -27 -90 -33 -17 -8 -26
-8 -37 1 -12 10 -15 9 -19 -6 -3 -10 -5 9 -6 42 -1 33 -4 71 -6 85 -5 21 -4
22 4 5 6 -13 7 8 4 61 -7 95 6 396 16 390 4 -3 5 11 3 30 -2 18 3 73 11 121 9
49 19 120 23 158 5 50 9 64 15 50 5 -12 6 -2 3 25 -3 25 2 83 10 130 9 47 28
162 41 255 34 227 50 305 58 280 4 -14 5 -11 3 8 -3 27 -2 27 53 27 31 0 80
-7 108 -14z m-527 -126 c0 -34 -13 -91 -19 -82 -3 6 -6 -9 -7 -31 0 -47 -34
-168 -45 -161 -4 2 -5 -4 -2 -14 2 -11 -7 -79 -21 -153 -51 -270 -60 -762 -20
-1071 l7 -48 -104 0 c-122 1 -335 24 -353 39 -7 6 -16 8 -19 4 -4 -3 -7 2 -7
13 0 16 -2 17 -11 4 -8 -12 -9 -10 -5 10 3 14 8 49 12 78 4 36 10 49 15 40 6
-8 7 -2 4 17 -3 17 -1 53 5 80 6 28 17 79 24 115 8 42 14 58 18 45 3 -11 3 2
0 29 -3 33 -2 47 5 43 7 -5 9 0 6 11 -2 10 1 43 7 73 6 30 22 122 36 204 13
83 28 173 34 200 5 28 12 101 14 163 5 94 9 118 26 143 12 16 26 29 31 29 5 0
47 29 94 65 46 36 86 65 89 65 3 0 14 7 24 16 9 8 41 33 70 54 55 40 92 48 92
20z m1835 -60 c234 -30 326 -54 309 -81 -3 -5 0 -8 8 -7 18 4 23 -75 6 -112
-7 -16 -15 -27 -19 -24 -4 2 -5 -6 -1 -18 3 -14 1 -19 -6 -14 -7 4 -10 2 -7
-6 11 -28 -233 -276 -257 -262 -7 5 -8 2 -3 -6 6 -10 4 -12 -9 -7 -10 4 -15 3
-11 -3 3 -6 -2 -13 -12 -17 -10 -4 -20 -9 -23 -13 -14 -18 -194 -110 -212
-109 -10 0 -10 2 -1 5 7 3 9 12 6 20 -5 13 -7 13 -14 3 -17 -28 -19 0 -3 41
12 30 19 38 26 28 5 -8 6 -2 2 16 -5 20 -4 27 4 22 7 -4 10 -2 7 6 -8 20 21
93 35 90 6 -1 9 2 5 8 -8 13 16 121 26 115 4 -3 5 4 2 14 -3 11 2 54 11 96 9
42 16 107 16 144 0 46 3 62 10 51 8 -12 10 -11 10 8 0 25 -1 25 95 12z m-3078
-392 c-2 -18 -4 -6 -4 27 0 33 2 48 4 33 2 -15 2 -42 0 -60z m4473 -82 c20
-13 42 -36 50 -52 8 -16 20 -35 27 -41 6 -7 19 -36 28 -65 10 -29 22 -58 27
-65 38 -48 16 -331 -25 -306 -6 3 -7 1 -3 -6 10 -16 -3 -53 -16 -45 -7 4 -8 2
-4 -5 14 -22 -115 -208 -136 -195 -6 4 -8 2 -4 -4 10 -16 -83 -90 -144 -113
-78 -30 -152 -22 -217 22 -66 45 -144 119 -137 130 3 5 2 8 -3 7 -4 -2 -9 0
-10 5 -2 4 -12 16 -24 28 -12 12 -18 27 -14 37 3 9 3 13 -1 9 -31 -30 -55 182
-44 373 6 98 12 122 35 165 31 58 63 95 82 95 7 0 13 5 13 11 0 8 5 8 15 -1
12 -10 15 -10 17 1 0 8 4 -15 8 -51 4 -36 14 -100 23 -144 9 -43 14 -84 10
-90 -3 -6 -3 -8 2 -4 4 4 19 -16 34 -44 56 -110 143 -170 170 -119 11 20 10
82 0 75 -11 -6 -19 37 -19 101 0 86 21 229 32 213 6 -8 7 -4 3 12 -6 29 20 65
57 79 12 6 48 10 78 10 42 1 64 -5 90 -23z"/>
<path d="M4922 5150 c0 -14 2 -19 5 -12 2 6 2 18 0 25 -3 6 -5 1 -5 -13z"/>
<path d="M4881 4914 c0 -11 3 -14 6 -6 3 7 2 16 -1 19 -3 4 -6 -2 -5 -13z"/>
<path d="M4872 4840 c0 -14 2 -19 5 -12 2 6 2 18 0 25 -3 6 -5 1 -5 -13z"/>
<path d="M4861 4764 c0 -11 3 -14 6 -6 3 7 2 16 -1 19 -3 4 -6 -2 -5 -13z"/>
<path d="M4812 4445 c0 -16 2 -22 5 -12 2 9 2 23 0 30 -3 6 -5 -1 -5 -18z"/>
<path d="M4802 4350 c0 -14 2 -19 5 -12 2 6 2 18 0 25 -3 6 -5 1 -5 -13z"/>
<path d="M5381 4184 c0 -11 3 -14 6 -6 3 7 2 16 -1 19 -3 4 -6 -2 -5 -13z"/>
<path d="M4763 3975 c0 -27 2 -38 4 -22 2 15 2 37 0 50 -2 12 -4 0 -4 -28z"/>
<path d="M4551 5084 c0 -11 3 -14 6 -6 3 7 2 16 -1 19 -3 4 -6 -2 -5 -13z"/>
<path d="M4153 4680 c0 -30 2 -43 4 -27 2 15 2 39 0 55 -2 15 -4 2 -4 -28z"/>
<path d="M4433 4490 c0 -25 2 -35 4 -22 2 12 2 32 0 45 -2 12 -4 2 -4 -23z"/>
<path d="M4423 4310 c0 -30 2 -43 4 -27 2 15 2 39 0 55 -2 15 -4 2 -4 -28z"/>
<path d="M4101 4314 c0 -11 3 -14 6 -6 3 7 2 16 -1 19 -3 4 -6 -2 -5 -13z"/>
<path d="M4031 3924 c0 -11 3 -14 6 -6 3 7 2 16 -1 19 -3 4 -6 -2 -5 -13z"/>
<path d="M4423 3790 c0 -30 2 -43 4 -27 2 15 2 39 0 55 -2 15 -4 2 -4 -28z"/>
<path d="M4431 3674 c0 -11 3 -14 6 -6 3 7 2 16 -1 19 -3 4 -6 -2 -5 -13z"/>
<path d="M4442 3580 c0 -14 2 -19 5 -12 2 6 2 18 0 25 -3 6 -5 1 -5 -13z"/>
<path d="M6292 4860 c0 -14 2 -19 5 -12 2 6 2 18 0 25 -3 6 -5 1 -5 -13z"/>
<path d="M7552 4355 c0 -16 2 -22 5 -12 2 9 2 23 0 30 -3 6 -5 -1 -5 -18z"/>
<path d="M7552 4230 c0 -14 2 -19 5 -12 2 6 2 18 0 25 -3 6 -5 1 -5 -13z"/>
<path d="M7941 4234 c0 -11 3 -14 6 -6 3 7 2 16 -1 19 -3 4 -6 -2 -5 -13z"/>
<path d="M7152 4175 c0 -16 2 -22 5 -12 2 9 2 23 0 30 -3 6 -5 -1 -5 -18z"/>
<path d="M5271 5824 c0 -11 3 -14 6 -6 3 7 2 16 -1 19 -3 4 -6 -2 -5 -13z"/>
<path d="M3002 5790 c0 -14 2 -19 5 -12 2 6 2 18 0 25 -3 6 -5 1 -5 -13z"/>
<path d="M2483 5610 c0 -47 2 -66 4 -42 2 23 2 61 0 85 -2 23 -4 4 -4 -43z"/>
<path d="M2972 5375 c0 -16 2 -22 5 -12 2 9 2 23 0 30 -3 6 -5 -1 -5 -18z"/>
<path d="M1642 5230 c0 -14 2 -19 5 -12 2 6 2 18 0 25 -3 6 -5 1 -5 -13z"/>
<path d="M3372 5215 c0 -16 2 -22 5 -12 2 9 2 23 0 30 -3 6 -5 -1 -5 -18z"/>
<path d="M3833 5150 c0 -25 2 -35 4 -22 2 12 2 32 0 45 -2 12 -4 2 -4 -23z"/>
<path d="M7205 5170 c-42 -46 26 -114 73 -74 26 22 28 56 6 78 -21 22 -57 20
-79 -4z"/>
<path d="M2052 5080 c0 -14 2 -19 5 -12 2 6 2 18 0 25 -3 6 -5 1 -5 -13z"/>
<path d="M1555 5065 c-31 -30 -31 -46 -2 -73 28 -27 49 -28 70 -4 23 25 21 57
-5 82 -28 26 -34 25 -63 -5z"/>
<path d="M2582 4975 c0 -16 2 -22 5 -12 2 9 2 23 0 30 -3 6 -5 -1 -5 -18z"/>
<path d="M2011 4834 c0 -11 3 -14 6 -6 3 7 2 16 -1 19 -3 4 -6 -2 -5 -13z"/>
<path d="M7671 4834 c0 -11 3 -14 6 -6 3 7 2 16 -1 19 -3 4 -6 -2 -5 -13z"/>
<path d="M2903 4780 c0 -25 2 -35 4 -22 2 12 2 32 0 45 -2 12 -4 2 -4 -23z"/>
<path d="M2001 4754 c0 -11 3 -14 6 -6 3 7 2 16 -1 19 -3 4 -6 -2 -5 -13z"/>
<path d="M5813 4600 c0 -47 2 -66 4 -42 2 23 2 61 0 85 -2 23 -4 4 -4 -43z"/>
<path d="M2951 4634 c0 -11 3 -14 6 -6 3 7 2 16 -1 19 -3 4 -6 -2 -5 -13z"/>
<path d="M2893 4570 c0 -30 2 -43 4 -27 2 15 2 39 0 55 -2 15 -4 2 -4 -28z"/>
<path d="M2533 4445 c0 -22 2 -30 4 -17 2 12 2 30 0 40 -3 9 -5 -1 -4 -23z"/>
<path d="M1953 4370 c0 -25 2 -35 4 -22 2 12 2 32 0 45 -2 12 -4 2 -4 -23z"/>
<path d="M1551 4174 c0 -11 3 -14 6 -6 3 7 2 16 -1 19 -3 4 -6 -2 -5 -13z"/>
<path d="M6831 4174 c0 -11 3 -14 6 -6 3 7 2 16 -1 19 -3 4 -6 -2 -5 -13z"/>
<path d="M5812 4140 c0 -14 2 -19 5 -12 2 6 2 18 0 25 -3 6 -5 1 -5 -13z"/>
<path d="M3663 4000 c0 -25 2 -35 4 -22 2 12 2 32 0 45 -2 12 -4 2 -4 -23z"/>
<path d="M1581 3704 c0 -11 3 -14 6 -6 3 7 2 16 -1 19 -3 4 -6 -2 -5 -13z"/>
<path d="M2532 3555 c0 -16 2 -22 5 -12 2 9 2 23 0 30 -3 6 -5 -1 -5 -18z"/>
<path d="M1953 3395 c0 -33 2 -45 4 -27 2 18 2 45 0 60 -2 15 -4 0 -4 -33z"/>
<path d="M3921 3384 c0 -11 3 -14 6 -6 3 7 2 16 -1 19 -3 4 -6 -2 -5 -13z"/>
<path d="M2893 3190 c0 -30 2 -43 4 -27 2 15 2 39 0 55 -2 15 -4 2 -4 -28z"/>
<path d="M2477 3122 c-34 -37 -13 -92 33 -92 47 0 68 61 32 93 -24 22 -45 21
-65 -1z"/>
<path d="M5607 3120 c-11 -11 -58 -23 -134 -34 -247 -36 -352 -74 -464 -167
-25 -21 -50 -35 -54 -31 -5 4 -5 2 -2 -5 4 -6 -9 -34 -28 -63 -19 -29 -35 -57
-35 -62 0 -6 -7 -7 -16 -4 -12 4 -15 2 -10 -9 7 -20 -18 -20 -38 1 -9 8 -16
12 -16 8 0 -4 -9 1 -19 10 -31 28 -139 57 -251 67 -75 7 -108 14 -117 25 -6 8
-14 15 -17 15 -13 -2 -56 32 -51 40 7 10 -59 23 -79 16 -7 -3 -16 -17 -18 -31
-3 -14 -2 -23 2 -21 4 2 15 -14 26 -36 19 -44 85 -106 121 -115 13 -4 23 -10
23 -14 0 -19 103 -32 201 -25 104 8 138 1 188 -37 13 -10 29 -18 35 -18 6 0
43 30 82 68 73 69 153 129 167 124 4 -1 7 2 7 7 0 5 24 17 53 26 28 9 70 25
92 35 22 10 73 26 113 36 64 16 74 17 82 4 8 -12 10 -13 10 -1 0 8 2 12 5 9
11 -10 -15 -59 -27 -52 -7 4 -8 3 -4 -5 9 -15 -21 -64 -34 -56 -6 4 -7 -1 -3
-11 4 -11 2 -15 -4 -11 -14 9 -4 -40 11 -52 17 -15 52 -3 65 22 47 90 61 111
75 113 9 1 16 -3 16 -9 0 -8 3 -7 9 1 6 10 10 5 14 -17 8 -36 51 -129 85 -183
14 -21 21 -42 16 -50 -4 -7 -3 -10 1 -5 11 10 58 -70 49 -85 -4 -6 -3 -8 3 -5
13 8 33 -44 33 -87 1 -70 50 -86 90 -30 63 88 153 202 187 237 38 39 147 127
157 127 3 0 29 14 58 31 100 59 251 86 362 64 28 -6 40 -4 47 6 14 23 10 37
-18 64 -36 33 -111 55 -190 55 -88 0 -250 -36 -296 -66 -21 -14 -43 -22 -49
-18 -6 4 -8 3 -4 -4 8 -13 -68 -74 -79 -64 -5 4 -6 2 -2 -3 8 -16 -7 -36 -29
-39 -10 -2 -19 -8 -19 -14 0 -19 -46 -73 -57 -66 -7 5 -8 2 -3 -6 5 -8 2 -18
-9 -26 -10 -7 -17 -15 -17 -18 1 -14 -12 -36 -21 -36 -5 0 -6 6 -2 13 5 8 2 7
-9 -2 -10 -8 -19 -12 -21 -10 -23 30 -75 142 -70 151 5 7 3 8 -6 3 -10 -6 -12
-4 -7 9 4 10 3 15 -3 11 -13 -8 -43 41 -34 56 5 8 3 9 -6 4 -10 -6 -12 -4 -7
9 4 9 3 15 -2 12 -5 -3 -11 4 -15 17 -8 32 -7 159 2 153 4 -2 6 13 4 35 -4 39
-5 40 -41 38 -20 -2 -44 -10 -54 -19z"/>
<path d="M4142 3061 c-2 -37 20 -71 48 -71 40 0 67 73 36 99 -7 6 -29 10 -47
9 -31 -3 -34 -6 -37 -37z"/>
<path d="M3851 3034 c0 -11 3 -14 6 -6 3 7 2 16 -1 19 -3 4 -6 -2 -5 -13z"/>
<path d="M2511 2951 c-13 -9 -13 -34 2 -218 1 -11 6 -19 11 -15 5 3 7 -5 3
-17 -3 -13 -3 -20 0 -17 3 3 20 -16 37 -43 27 -43 231 -264 210 -229 -4 7 5 2
19 -11 15 -13 24 -29 20 -35 -3 -6 -3 -8 2 -4 9 9 46 -42 68 -93 7 -19 21 -40
30 -47 13 -11 19 -10 36 7 12 12 21 30 21 42 0 13 4 18 12 13 7 -4 8 -3 4 4
-4 7 -4 18 1 25 4 6 8 14 9 17 6 32 90 202 117 237 13 18 28 29 32 25 5 -4 5
-2 2 4 -8 13 30 60 45 56 5 -1 7 1 4 6 -6 9 54 58 67 54 4 -1 7 2 7 7 0 13 91
31 158 31 75 -1 129 -26 177 -84 42 -52 71 -59 81 -20 15 59 -70 172 -162 214
-105 48 -304 17 -387 -61 -11 -10 -24 -16 -29 -13 -5 3 -7 2 -6 -3 5 -14 -45
-73 -55 -66 -6 3 -7 1 -3 -5 3 -6 0 -16 -7 -24 -7 -7 -28 -46 -47 -86 -23 -50
-36 -68 -42 -60 -6 9 -7 5 -3 -9 8 -28 -4 -75 -17 -67 -6 4 -14 1 -18 -5 -7
-13 -65 54 -65 76 0 7 -3 12 -7 10 -9 -3 -168 154 -168 166 0 4 5 5 10 2 16
-10 11 1 -7 16 -14 12 -16 12 -8 0 5 -10 4 -12 -4 -7 -7 4 -9 17 -6 29 5 16 4
18 -3 8 -8 -11 -12 -10 -21 8 -7 12 -9 27 -5 33 5 7 3 8 -6 3 -10 -6 -12 -3
-8 13 4 14 2 20 -4 16 -7 -5 -9 3 -4 22 5 23 4 26 -5 14 -9 -12 -10 -11 -6 8
3 12 1 20 -4 16 -5 -3 -14 8 -21 23 -18 41 -32 49 -57 34z"/>
<path d="M5701 2934 c0 -11 3 -14 6 -6 3 7 2 16 -1 19 -3 4 -6 -2 -5 -13z"/>
<path d="M5792 2865 c0 -16 2 -22 5 -12 2 9 2 23 0 30 -3 6 -5 -1 -5 -18z"/>
<path d="M6782 2874 c-43 -30 -19 -104 32 -96 50 9 62 56 24 92 -26 24 -28 24
-56 4z"/>
<path d="M5571 2834 c0 -11 3 -14 6 -6 3 7 2 16 -1 19 -3 4 -6 -2 -5 -13z"/>
<path d="M5752 2455 c0 -16 2 -22 5 -12 2 9 2 23 0 30 -3 6 -5 -1 -5 -18z"/>
</g>
</svg>
